<svg width="23" height="27" viewBox="0 0 23 27" fill="none" xmlns="http://www.w3.org/2000/svg">
<path d="M22.747 15.616L20.6002 12.3148C20.4887 12.1172 20.4329 11.8915 20.405 11.6658C20.0426 7.60272 16.8921 4.35791 12.8773 3.96289C12.9609 4.80936 12.6264 5.65584 11.9851 6.22015L10.5632 7.43343L11.0093 9.26745C11.2045 10.0575 11.0093 10.8757 10.5074 11.5247C10.0056 12.1455 9.25282 12.5405 8.44428 12.5405C7.97031 12.5405 7.49634 12.4276 7.07814 12.1737L5.48894 11.1861L3.92763 12.1737C3.87187 12.2301 3.78823 12.2583 3.70459 12.2865C3.70459 12.343 3.70459 12.3712 3.70459 12.4276C3.70459 15.221 5.01498 17.9297 7.07814 19.7073C7.32906 19.933 7.46846 20.2152 7.46846 20.5537V26.0276C7.46846 26.4226 7.77515 26.733 8.1376 26.7612H15.3587C15.8047 26.7894 16.1672 26.4508 16.1672 26.0276V22.5853C16.1672 22.3596 16.3624 22.1903 16.5575 22.1903H19.0668C19.8474 22.1903 20.4608 21.5413 20.4608 20.7795V17.3372C20.4608 17.1961 20.5723 17.055 20.7396 17.055H21.9663C22.7191 17.0832 23.1652 16.2367 22.747 15.616Z" fill="url(#paint0_linear_102_2625)"/>
<path d="M5.96357 9.26182L8.08248 10.5597C8.66797 10.9265 9.42074 10.3905 9.25346 9.71327L8.66797 7.28672C8.61221 7.00456 8.69585 6.69419 8.9189 6.49668L10.8148 4.86016C11.3445 4.40871 11.0657 3.53402 10.3687 3.47759L7.88732 3.28008C7.60852 3.25187 7.32971 3.08257 7.21819 2.80041L6.27025 0.486722C5.99145 -0.162241 5.09928 -0.162241 4.82047 0.486722L3.87254 2.80041C3.76102 3.08257 3.51009 3.25187 3.20341 3.28008L0.722051 3.47759C0.02504 3.50581 -0.253764 4.3805 0.275964 4.83195L2.17183 6.46846C2.39488 6.66597 2.47852 6.97634 2.42276 7.2585L1.83727 9.71327C1.66999 10.3905 2.42276 10.9265 3.00825 10.5597L5.12716 9.26182C5.40596 9.12074 5.71265 9.12074 5.96357 9.26182Z" fill="url(#paint1_linear_102_2625)"/>
<defs>
<linearGradient id="paint0_linear_102_2625" x1="13.3062" y1="3.96289" x2="13.3062" y2="26.7629" gradientUnits="userSpaceOnUse">
<stop stop-color="#FD8C4D"/>
<stop offset="1" stop-color="#FD6C4D"/>
</linearGradient>
<linearGradient id="paint1_linear_102_2625" x1="5.54536" y1="0" x2="5.54536" y2="10.6789" gradientUnits="userSpaceOnUse">
<stop stop-color="#FD8C4D"/>
<stop offset="1" stop-color="#FD6C4D"/>
</linearGradient>
</defs>
</svg>
