<svg width="82" height="84" viewBox="0 0 82 84" fill="none" xmlns="http://www.w3.org/2000/svg">
<g filter="url(#filter0_d_102_2477)">
<circle cx="41" cy="27" r="27" fill="#FF7B29"/>
</g>
<path d="M47.8167 26.4326C47.8165 26.4324 47.8163 26.4322 47.8161 26.432L44.5504 23.182C44.3057 22.9385 43.91 22.9394 43.6665 23.1841C43.423 23.4288 43.4239 23.8245 43.6686 24.068L45.8612 26.25H32.625C32.2798 26.25 32 26.5298 32 26.875C32 27.2202 32.2798 27.5 32.625 27.5H45.8612L43.6686 29.682C43.4239 29.9255 43.423 30.3212 43.6665 30.5659C43.91 30.8106 44.3058 30.8114 44.5504 30.568L47.8162 27.318C47.8163 27.3178 47.8165 27.3176 47.8167 27.3174C48.0615 27.0731 48.0607 26.6761 47.8167 26.4326Z" fill="white"/>
<defs>
<filter id="filter0_d_102_2477" x="0" y="0" width="82" height="84" filterUnits="userSpaceOnUse" color-interpolation-filters="sRGB">
<feFlood flood-opacity="0" result="BackgroundImageFix"/>
<feColorMatrix in="SourceAlpha" type="matrix" values="0 0 0 0 0 0 0 0 0 0 0 0 0 0 0 0 0 0 127 0" result="hardAlpha"/>
<feMorphology radius="6" operator="erode" in="SourceAlpha" result="effect1_dropShadow_102_2477"/>
<feOffset dy="16"/>
<feGaussianBlur stdDeviation="10"/>
<feColorMatrix type="matrix" values="0 0 0 0 0.9125 0 0 0 0 0.415316 0 0 0 0 0.106458 0 0 0 0.19 0"/>
<feBlend mode="normal" in2="BackgroundImageFix" result="effect1_dropShadow_102_2477"/>
<feBlend mode="normal" in="SourceGraphic" in2="effect1_dropShadow_102_2477" result="shape"/>
</filter>
</defs>
</svg>
