<svg width="72" height="14" viewBox="0 0 72 14" fill="none" xmlns="http://www.w3.org/2000/svg">
<path d="M64.2987 0.945805C64.4799 0.566244 65.0201 0.566245 65.2013 0.945805L66.5772 3.82938C66.6501 3.98214 66.7953 4.08764 66.9631 4.10976L70.1308 4.52732C70.5477 4.58228 70.7147 5.09612 70.4097 5.38566L68.0924 7.58536C67.9697 7.70189 67.9142 7.87261 67.945 8.03903L68.5268 11.1807C68.6033 11.5942 68.1662 11.9118 67.7966 11.7112L64.9885 10.1871C64.8398 10.1063 64.6602 10.1063 64.5115 10.1871L61.7034 11.7112C61.3338 11.9118 60.8967 11.5942 60.9732 11.1807L61.555 8.03903C61.5858 7.87261 61.5303 7.70189 61.4076 7.58536L59.0903 5.38566C58.7853 5.09612 58.9523 4.58228 59.3692 4.52732L62.5369 4.10976C62.7047 4.08764 62.8499 3.98214 62.9228 3.82938L64.2987 0.945805Z" fill="url(#paint0_linear_102_2395)"/>
<path d="M6.29874 0.945683C6.47986 0.566122 7.02014 0.566122 7.20126 0.945683L8.57723 3.82926C8.65012 3.98201 8.79534 4.08752 8.96314 4.10964L12.1308 4.5272C12.5477 4.58216 12.7147 5.09599 12.4097 5.38554L10.0924 7.58524C9.96968 7.70177 9.91421 7.87249 9.94503 8.03891L10.5268 11.1805C10.6033 11.5941 10.1662 11.9116 9.79662 11.711L6.98851 10.1869C6.83975 10.1062 6.66025 10.1062 6.51149 10.1869L3.70338 11.711C3.33376 11.9116 2.89666 11.5941 2.97323 11.1805L3.55497 8.03891C3.58579 7.87248 3.53032 7.70177 3.40756 7.58524L1.09032 5.38554C0.785304 5.09599 0.952261 4.58216 1.36921 4.5272L4.53686 4.10964C4.70466 4.08752 4.84988 3.98201 4.92277 3.82926L6.29874 0.945683Z" fill="url(#paint1_linear_102_2395)"/>
<path d="M20.7987 0.945683C20.9799 0.566122 21.5201 0.566122 21.7013 0.945683L23.0772 3.82926C23.1501 3.98201 23.2953 4.08752 23.4631 4.10964L26.6308 4.5272C27.0477 4.58216 27.2147 5.09599 26.9097 5.38554L24.5924 7.58524C24.4697 7.70177 24.4142 7.87249 24.445 8.03891L25.0268 11.1805C25.1033 11.5941 24.6662 11.9116 24.2966 11.711L21.4885 10.1869C21.3398 10.1062 21.1602 10.1062 21.0115 10.1869L18.2034 11.711C17.8338 11.9116 17.3967 11.5941 17.4732 11.1805L18.055 8.03891C18.0858 7.87248 18.0303 7.70177 17.9076 7.58524L15.5903 5.38554C15.2853 5.09599 15.4523 4.58216 15.8692 4.5272L19.0369 4.10964C19.2047 4.08752 19.3499 3.98201 19.4228 3.82926L20.7987 0.945683Z" fill="url(#paint2_linear_102_2395)"/>
<path d="M49.7987 0.945805C49.9799 0.566244 50.5201 0.566245 50.7013 0.945805L52.0772 3.82938C52.1501 3.98214 52.2953 4.08764 52.4631 4.10976L55.6308 4.52732C56.0477 4.58228 56.2147 5.09612 55.9097 5.38566L53.5924 7.58536C53.4697 7.70189 53.4142 7.87261 53.445 8.03903L54.0268 11.1807C54.1033 11.5942 53.6662 11.9118 53.2966 11.7112L50.4885 10.1871C50.3398 10.1063 50.1602 10.1063 50.0115 10.1871L47.2034 11.7112C46.8338 11.9118 46.3967 11.5942 46.4732 11.1807L47.055 8.03903C47.0858 7.87261 47.0303 7.70189 46.9076 7.58536L44.5903 5.38566C44.2853 5.09612 44.4523 4.58228 44.8692 4.52732L48.0369 4.10976C48.2047 4.08764 48.3499 3.98214 48.4228 3.82938L49.7987 0.945805Z" fill="url(#paint3_linear_102_2395)"/>
<path d="M35.2987 0.945805C35.4799 0.566244 36.0201 0.566245 36.2013 0.945805L37.5772 3.82938C37.6501 3.98214 37.7953 4.08764 37.9631 4.10976L41.1308 4.52732C41.5477 4.58228 41.7147 5.09612 41.4097 5.38566L39.0924 7.58536C38.9697 7.70189 38.9142 7.87261 38.945 8.03903L39.5268 11.1807C39.6033 11.5942 39.1662 11.9118 38.7966 11.7112L35.9885 10.1871C35.8398 10.1063 35.6602 10.1063 35.5115 10.1871L32.7034 11.7112C32.3338 11.9118 31.8967 11.5942 31.9732 11.1807L32.555 8.03903C32.5858 7.87261 32.5303 7.70189 32.4076 7.58536L30.0903 5.38566C29.7853 5.09612 29.9523 4.58228 30.3692 4.52732L33.5369 4.10976C33.7047 4.08764 33.8499 3.98214 33.9228 3.82938L35.2987 0.945805Z" fill="url(#paint4_linear_102_2395)"/>
<defs>
<linearGradient id="paint0_linear_102_2395" x1="64.75" y1="0.00012207" x2="64.75" y2="13.5001" gradientUnits="userSpaceOnUse">
<stop offset="0.0985536" stop-color="#FFA364"/>
<stop offset="0.788912" stop-color="#FFC112"/>
</linearGradient>
<linearGradient id="paint1_linear_102_2395" x1="6.75" y1="0" x2="6.75" y2="13.5" gradientUnits="userSpaceOnUse">
<stop offset="0.0985536" stop-color="#FFA364"/>
<stop offset="0.788912" stop-color="#FFC112"/>
</linearGradient>
<linearGradient id="paint2_linear_102_2395" x1="21.25" y1="0" x2="21.25" y2="13.5" gradientUnits="userSpaceOnUse">
<stop offset="0.0985536" stop-color="#FFA364"/>
<stop offset="0.788912" stop-color="#FFC112"/>
</linearGradient>
<linearGradient id="paint3_linear_102_2395" x1="50.25" y1="0.00012207" x2="50.25" y2="13.5001" gradientUnits="userSpaceOnUse">
<stop offset="0.0985536" stop-color="#FFA364"/>
<stop offset="0.788912" stop-color="#FFC112"/>
</linearGradient>
<linearGradient id="paint4_linear_102_2395" x1="35.75" y1="0.00012207" x2="35.75" y2="13.5001" gradientUnits="userSpaceOnUse">
<stop offset="0.0985536" stop-color="#FFA364"/>
<stop offset="0.788912" stop-color="#FFC112"/>
</linearGradient>
</defs>
</svg>
