<svg width="208" height="110" viewBox="0 0 208 110" fill="none" xmlns="http://www.w3.org/2000/svg">
<path d="M119.43 49.832L116.31 61H113.67L111.574 53.048L109.382 61L106.758 61.016L103.75 49.832H106.15L108.118 58.504L110.39 49.832H112.886L115.03 58.456L117.014 49.832H119.43ZM120.317 56.536C120.317 55.64 120.493 54.8453 120.845 54.152C121.208 53.4587 121.693 52.9253 122.301 52.552C122.92 52.1787 123.608 51.992 124.365 51.992C125.026 51.992 125.602 52.1253 126.093 52.392C126.594 52.6587 126.994 52.9947 127.293 53.4V52.136H129.549V61H127.293V59.704C127.005 60.12 126.605 60.4667 126.093 60.744C125.592 61.0107 125.01 61.144 124.349 61.144C123.602 61.144 122.92 60.952 122.301 60.568C121.693 60.184 121.208 59.6453 120.845 58.952C120.493 58.248 120.317 57.4427 120.317 56.536ZM127.293 56.568C127.293 56.024 127.186 55.56 126.973 55.176C126.76 54.7813 126.472 54.4827 126.109 54.28C125.746 54.0667 125.357 53.96 124.941 53.96C124.525 53.96 124.141 54.0613 123.789 54.264C123.437 54.4667 123.149 54.7653 122.925 55.16C122.712 55.544 122.605 56.0027 122.605 56.536C122.605 57.0693 122.712 57.5387 122.925 57.944C123.149 58.3387 123.437 58.6427 123.789 58.856C124.152 59.0693 124.536 59.176 124.941 59.176C125.357 59.176 125.746 59.0747 126.109 58.872C126.472 58.6587 126.76 58.36 126.973 57.976C127.186 57.5813 127.293 57.112 127.293 56.568ZM134.345 53.976V58.264C134.345 58.5627 134.414 58.7813 134.553 58.92C134.702 59.048 134.947 59.112 135.289 59.112H136.329V61H134.921C133.033 61 132.089 60.0827 132.089 58.248V53.976H131.033V52.136H132.089V49.944H134.345V52.136H136.329V53.976H134.345ZM137.364 56.568C137.364 55.6507 137.551 54.8507 137.924 54.168C138.297 53.4747 138.815 52.9413 139.476 52.568C140.137 52.184 140.895 51.992 141.748 51.992C142.847 51.992 143.753 52.2693 144.468 52.824C145.193 53.368 145.679 54.136 145.924 55.128H143.508C143.38 54.744 143.161 54.4453 142.852 54.232C142.553 54.008 142.18 53.896 141.732 53.896C141.092 53.896 140.585 54.1307 140.212 54.6C139.839 55.0587 139.652 55.7147 139.652 56.568C139.652 57.4107 139.839 58.0667 140.212 58.536C140.585 58.9947 141.092 59.224 141.732 59.224C142.639 59.224 143.231 58.8187 143.508 58.008H145.924C145.679 58.968 145.193 59.7307 144.468 60.296C143.743 60.8613 142.836 61.144 141.748 61.144C140.895 61.144 140.137 60.9573 139.476 60.584C138.815 60.2 138.297 59.6667 137.924 58.984C137.551 58.2907 137.364 57.4853 137.364 56.568ZM152.557 52.008C153.229 52.008 153.826 52.1573 154.349 52.456C154.872 52.744 155.277 53.176 155.565 53.752C155.864 54.3173 156.013 55 156.013 55.8V61H153.773V56.104C153.773 55.4 153.597 54.8613 153.245 54.488C152.893 54.104 152.413 53.912 151.805 53.912C151.186 53.912 150.696 54.104 150.333 54.488C149.981 54.8613 149.805 55.4 149.805 56.104V61H147.565V49.16H149.805V53.24C150.093 52.856 150.477 52.5573 150.957 52.344C151.437 52.12 151.97 52.008 152.557 52.008ZM171.988 49.832L167.892 61H165.172L161.076 49.832H163.476L166.548 58.712L169.604 49.832H171.988ZM174.467 51.08C174.072 51.08 173.741 50.9573 173.475 50.712C173.219 50.456 173.091 50.1413 173.091 49.768C173.091 49.3947 173.219 49.0853 173.475 48.84C173.741 48.584 174.072 48.456 174.467 48.456C174.861 48.456 175.187 48.584 175.443 48.84C175.709 49.0853 175.843 49.3947 175.843 49.768C175.843 50.1413 175.709 50.456 175.443 50.712C175.187 50.9573 174.861 51.08 174.467 51.08ZM175.571 52.136V61H173.331V52.136H175.571ZM177.208 56.536C177.208 55.64 177.384 54.8453 177.736 54.152C178.098 53.4587 178.589 52.9253 179.208 52.552C179.826 52.1787 180.514 51.992 181.272 51.992C181.848 51.992 182.397 52.12 182.92 52.376C183.442 52.6213 183.858 52.952 184.168 53.368V49.16H186.44V61H184.168V59.688C183.89 60.1253 183.501 60.4773 183 60.744C182.498 61.0107 181.917 61.144 181.256 61.144C180.509 61.144 179.826 60.952 179.208 60.568C178.589 60.184 178.098 59.6453 177.736 58.952C177.384 58.248 177.208 57.4427 177.208 56.536ZM184.184 56.568C184.184 56.024 184.077 55.56 183.864 55.176C183.65 54.7813 183.362 54.4827 183 54.28C182.637 54.0667 182.248 53.96 181.832 53.96C181.416 53.96 181.032 54.0613 180.68 54.264C180.328 54.4667 180.04 54.7653 179.816 55.16C179.602 55.544 179.496 56.0027 179.496 56.536C179.496 57.0693 179.602 57.5387 179.816 57.944C180.04 58.3387 180.328 58.6427 180.68 58.856C181.042 59.0693 181.426 59.176 181.832 59.176C182.248 59.176 182.637 59.0747 183 58.872C183.362 58.6587 183.65 58.36 183.864 57.976C184.077 57.5813 184.184 57.112 184.184 56.568ZM196.867 56.376C196.867 56.696 196.846 56.984 196.803 57.24H190.323C190.377 57.88 190.601 58.3813 190.995 58.744C191.39 59.1067 191.875 59.288 192.451 59.288C193.283 59.288 193.875 58.9307 194.227 58.216H196.643C196.387 59.0693 195.897 59.7733 195.171 60.328C194.446 60.872 193.555 61.144 192.499 61.144C191.646 61.144 190.878 60.9573 190.195 60.584C189.523 60.2 188.995 59.6613 188.611 58.968C188.238 58.2747 188.051 57.4747 188.051 56.568C188.051 55.6507 188.238 54.8453 188.611 54.152C188.985 53.4587 189.507 52.9253 190.179 52.552C190.851 52.1787 191.625 51.992 192.499 51.992C193.342 51.992 194.094 52.1733 194.755 52.536C195.427 52.8987 195.945 53.416 196.307 54.088C196.681 54.7493 196.867 55.512 196.867 56.376ZM194.547 55.736C194.537 55.16 194.329 54.7013 193.923 54.36C193.518 54.008 193.022 53.832 192.435 53.832C191.881 53.832 191.411 54.0027 191.027 54.344C190.654 54.6747 190.425 55.1387 190.339 55.736H194.547ZM202.438 61.144C201.585 61.144 200.817 60.9573 200.134 60.584C199.452 60.2 198.913 59.6613 198.518 58.968C198.134 58.2747 197.942 57.4747 197.942 56.568C197.942 55.6613 198.14 54.8613 198.534 54.168C198.94 53.4747 199.489 52.9413 200.182 52.568C200.876 52.184 201.649 51.992 202.502 51.992C203.356 51.992 204.129 52.184 204.822 52.568C205.516 52.9413 206.06 53.4747 206.454 54.168C206.86 54.8613 207.062 55.6613 207.062 56.568C207.062 57.4747 206.854 58.2747 206.438 58.968C206.033 59.6613 205.478 60.2 204.774 60.584C204.081 60.9573 203.302 61.144 202.438 61.144ZM202.438 59.192C202.844 59.192 203.222 59.096 203.574 58.904C203.937 58.7013 204.225 58.4027 204.438 58.008C204.652 57.6133 204.758 57.1333 204.758 56.568C204.758 55.7253 204.534 55.08 204.086 54.632C203.649 54.1733 203.11 53.944 202.47 53.944C201.83 53.944 201.292 54.1733 200.854 54.632C200.428 55.08 200.214 55.7253 200.214 56.568C200.214 57.4107 200.422 58.0613 200.838 58.52C201.265 58.968 201.798 59.192 202.438 59.192Z" fill="#4D4F56"/>
<path d="M55 23C50.7977 23 46.6365 23.8277 42.7541 25.4359C38.8717 27.044 35.3441 29.4011 32.3726 32.3726C29.4011 35.3441 27.044 38.8717 25.4359 42.7541C23.8277 46.6366 23 50.7977 23 55C23 59.2023 23.8277 63.3635 25.4359 67.2459C27.044 71.1283 29.4011 74.6559 32.3726 77.6274C35.3441 80.5989 38.8717 82.956 42.7541 84.5641C46.6366 86.1723 50.7977 87 55 87L55 55L55 23Z" fill="#FB9333"/>
<g filter="url(#filter0_d_136_5)">
<circle cx="55" cy="55" r="27" fill="white"/>
</g>
<path d="M60 55L53.25 59.3301L53.25 50.6699L60 55Z" fill="#4D4F56"/>
<defs>
<filter id="filter0_d_136_5" x="0" y="0" width="110" height="110" filterUnits="userSpaceOnUse" color-interpolation-filters="sRGB">
<feFlood flood-opacity="0" result="BackgroundImageFix"/>
<feColorMatrix in="SourceAlpha" type="matrix" values="0 0 0 0 0 0 0 0 0 0 0 0 0 0 0 0 0 0 127 0" result="hardAlpha"/>
<feMorphology radius="12" operator="erode" in="SourceAlpha" result="effect1_dropShadow_136_5"/>
<feOffset/>
<feGaussianBlur stdDeviation="20"/>
<feColorMatrix type="matrix" values="0 0 0 0 0 0 0 0 0 0 0 0 0 0 0 0 0 0 0.2 0"/>
<feBlend mode="normal" in2="BackgroundImageFix" result="effect1_dropShadow_136_5"/>
<feBlend mode="normal" in="SourceGraphic" in2="effect1_dropShadow_136_5" result="shape"/>
</filter>
</defs>
</svg>
